# Simple cup mesh - a tapered cylinder
# Vertices
v 0.5 0.0 0.0
v 0.4 0.0 0.3
v 0.0 0.0 0.5
v -0.4 0.0 0.3
v -0.5 0.0 0.0
v -0.4 0.0 -0.3
v 0.0 0.0 -0.5
v 0.4 0.0 -0.3

v 0.7 1.0 0.0
v 0.5 1.0 0.5
v 0.0 1.0 0.7
v -0.5 1.0 0.5
v -0.7 1.0 0.0
v -0.5 1.0 -0.5
v 0.0 1.0 -0.7
v 0.5 1.0 -0.5

# Bottom cap
f 1 2 3
f 1 3 4
f 1 4 5
f 1 5 6
f 1 6 7
f 1 7 8

# Sides
f 1 9 2
f 2 9 10
f 2 10 3
f 3 10 11
f 3 11 4
f 4 11 12
f 4 12 5
f 5 12 13
f 5 13 6
f 6 13 14
f 6 14 7
f 7 14 15
f 7 15 8
f 8 15 16
f 8 16 1
f 1 16 9

# Top cap
f 9 16 15
f 9 15 14
f 9 14 13
f 9 13 12
f 9 12 11
f 9 11 10
